<?xml version="1.0" encoding="UTF-8"?>
<svg xmlns="http://www.w3.org/2000/svg" viewBox="0 0 425 425" width="425" height="425">
<path d="M0 0 C0.74372864 0.00087616 1.48745728 0.00175232 2.25372314 0.00265503 C32.73341268 0.12055933 61.46844059 8.84203273 86.5625 26.375 C87.54089844 27.055625 88.51929688 27.73625 89.52734375 28.4375 C122.0492225 52.23595762 142.79864745 86.79008983 149.64453125 126.328125 C150.80864998 134.15543224 150.96033719 141.91921777 150.9375 149.8125 C150.93662384 150.55622864 150.93574768 151.29995728 150.93484497 152.06622314 C150.81694067 182.54591268 142.09546727 211.28094059 124.5625 236.375 C123.881875 237.35339844 123.20125 238.33179688 122.5 239.33984375 C98.70154238 271.8617225 64.14741017 292.61114745 24.609375 299.45703125 C16.78206776 300.62114998 9.01828223 300.77283719 1.125 300.75 C0.00940704 300.74868576 0.00940704 300.74868576 -1.12872314 300.74734497 C-31.60841268 300.62944067 -60.34344059 291.90796727 -85.4375 274.375 C-86.41589844 273.694375 -87.39429688 273.01375 -88.40234375 272.3125 C-120.9242225 248.51404238 -141.67364745 213.95991017 -148.51953125 174.421875 C-149.68364998 166.59456776 -149.83533719 158.83078223 -149.8125 150.9375 C-149.81162384 150.19377136 -149.81074768 149.45004272 -149.80984497 148.68377686 C-149.69194067 118.20408732 -140.97046727 89.46905941 -123.4375 64.375 C-122.756875 63.39660156 -122.07625 62.41820312 -121.375 61.41015625 C-97.57654238 28.8882775 -63.02241017 8.13885255 -23.484375 1.29296875 C-15.65706776 0.12885002 -7.89328223 -0.02283719 0 0 Z " fill="#FFFF00" transform="translate(211.9375,-0.37499999999999994)"/>
<path d="M0 0 C1.20970459 0.00523682 2.41940918 0.01047363 3.66577148 0.01586914 C4.84083252 0.0183667 6.01589355 0.02086426 7.2265625 0.0234375 C8.7314624 0.0325415 10.2363623 0.04164551 11.78686523 0.05102539 C16.55124023 0.07165039 21.31561523 0.09227539 26.22436523 0.11352539 C26.71936523 19.91352539 26.71936523 19.91352539 27.22436523 40.11352539 C29.53436523 37.47352539 31.84436523 34.83352539 34.22436523 32.11352539 C37.72436523 28.61352539 37.72436523 28.61352539 39.47436523 26.89477539 C41.30679011 25.02962865 43.01789658 23.09424793 44.72436523 21.11352539 C47.50071042 17.89098187 50.42132438 14.89303503 53.45483398 11.91430664 C56.00628274 9.31779918 58.37330829 6.5739098 60.74389648 3.81274414 C63.94972581 0.13323027 63.94972581 0.13323027 67.38891602 -0.11352539 C68.73254487 -0.1132085 70.07619933 -0.10189642 71.41967773 -0.08178711 C72.12712128 -0.07895721 72.83456482 -0.07612732 73.56344604 -0.07321167 C75.82559033 -0.06200598 78.08734038 -0.0369014 80.34936523 -0.01147461 C81.8819116 -0.00144528 83.41446417 0.00768065 84.94702148 0.01586914 C88.70628824 0.03793453 92.46525987 0.07246643 96.22436523 0.11352539 C94.9208232 2.96805362 93.51489467 5.09487071 91.35327148 7.36352539 C90.50031494 8.26675537 90.50031494 8.26675537 89.63012695 9.18823242 C89.02185059 9.8235791 88.41357422 10.45892578 87.78686523 11.11352539 C86.50906724 12.46465845 85.2317285 13.81622597 83.95483398 15.16821289 C83.32109863 15.83691406 82.68736328 16.50561523 82.03442383 17.19458008 C78.6381585 20.79515271 75.31042387 24.45752656 71.97827148 28.11743164 C69.96939345 30.31636854 67.92994038 32.48330569 65.87670898 34.64086914 C65.31999512 35.2304541 64.76328125 35.82003906 64.18969727 36.42749023 C63.10946758 37.57026793 62.02341894 38.70758047 60.9309082 39.83862305 C57.85242431 42.92876423 57.85242431 42.92876423 57.22436523 47.11352539 C58.62513144 49.15804798 60.04958168 51.06268304 61.59936523 52.98852539 C62.52924971 54.16935988 63.45893198 55.35035364 64.38842773 56.53149414 C64.86441406 57.1313916 65.34040039 57.73128906 65.83081055 58.34936523 C67.90727614 60.97805136 69.93913262 63.64034754 71.97436523 66.30102539 C77.22964626 73.14190584 82.53028368 79.94755004 87.82983398 86.75415039 C88.37945801 87.46249023 88.92908203 88.17083008 89.49536133 88.90063477 C90.72309245 90.47196418 91.96153906 92.0349473 93.20727539 93.59204102 C93.84842285 94.39834961 94.48957031 95.2046582 95.15014648 96.03540039 C95.73836182 96.76855469 96.32657715 97.50170898 96.93261719 98.25708008 C98.22436523 100.11352539 98.22436523 100.11352539 98.22436523 102.11352539 C93.56591211 102.41298092 88.91317756 102.62908114 84.24731445 102.77270508 C82.66559228 102.83261148 81.08452238 102.91418568 79.50512695 103.01879883 C66.80648178 103.83806626 66.80648178 103.83806626 62.56268311 101.00372314 C59.13073717 97.82322754 56.70572759 94.05203621 54.22436523 90.11352539 C53.27990206 88.87938756 52.322572 87.65474629 51.34155273 86.44946289 C50.60163086 85.47235352 49.86170898 84.49524414 49.09936523 83.48852539 C44.89199666 77.9612145 40.59045387 72.51625518 36.22436523 67.11352539 C35.48186523 67.85602539 34.73936523 68.59852539 33.97436523 69.36352539 C31.22436523 72.11352539 31.22436523 72.11352539 29.09057617 73.90551758 C26.66510152 76.77521836 26.68799274 78.46852249 26.61499023 82.19165039 C26.584375 83.23740234 26.55375977 84.2831543 26.5222168 85.3605957 C26.50642578 86.6815625 26.49063477 88.0025293 26.47436523 89.36352539 C26.39186523 93.57102539 26.30936523 97.77852539 26.22436523 102.11352539 C16.32436523 102.11352539 6.42436523 102.11352539 -3.77563477 102.11352539 C-3.79818355 88.96203209 -3.81654855 75.81055153 -3.82744694 62.65904331 C-3.83267632 56.5529617 -3.83977497 50.44689395 -3.85107422 44.34082031 C-3.86190113 38.45347392 -3.86791118 32.5661409 -3.87051201 26.67878532 C-3.87236661 24.42720263 -3.87598789 22.1756207 -3.88136482 19.92404366 C-3.88857265 16.78219112 -3.88962582 13.64039456 -3.88916016 10.49853516 C-3.89275543 9.55770584 -3.89635071 8.61687653 -3.90005493 7.64753723 C-3.88796125 0.15902032 -3.88796125 0.15902032 0 0 Z " fill="#FFFF00" transform="translate(167.275634765625,321.886474609375)"/>
<path d="M0 0 C9.301875 -0.0825 18.60375 -0.165 28.1875 -0.25 C31.09715576 -0.28641602 34.00681152 -0.32283203 37.00463867 -0.36035156 C39.35074123 -0.37205085 41.69685201 -0.38223972 44.04296875 -0.390625 C45.2287854 -0.41108887 46.41460205 -0.43155273 47.63635254 -0.45263672 C60.57518849 -0.45795532 71.83545584 2.83515967 81.6875 11.3125 C90.36018318 21.39156424 91.84761545 30.97056721 91.1953125 43.89160156 C90.77417326 48.43779964 89.31974016 52.11208659 87 56 C86.57589844 56.71414063 86.15179688 57.42828125 85.71484375 58.1640625 C79.33237823 67.65775773 68.94963996 72.42032961 57.97265625 74.6015625 C52.33037417 75.1674551 46.72843224 75.10405041 41.0625 75.0625 C37.081875 75.041875 33.10125 75.02125 29 75 C29 83.58 29 92.16 29 101 C19.43 101 9.86 101 0 101 C0 67.67 0 34.34 0 0 Z M29 23 C29 32.57 29 42.14 29 52 C44.25829813 53.03405586 44.25829813 53.03405586 57.9375 47.6875 C61.11850105 43.54255924 62.22554663 40.7735254 61.9375 35.5625 C61.24225158 30.6548641 59.61029709 28.36414047 56 25 C52.44598388 23.25691209 49.63784082 22.75862174 45.69921875 22.8046875 C44.81838623 22.80968262 43.93755371 22.81467773 43.0300293 22.81982422 C41.92699463 22.83803223 40.82395996 22.85624023 39.6875 22.875 C36.160625 22.91625 32.63375 22.9575 29 23 Z " fill="#FFFF00" transform="translate(62.5,323)"/>
<path d="M0 0 C-2.97 6.93 -5.94 13.86 -9 21 C-18 18 -18 18 -20.6171875 17.05078125 C-26.67665698 15.06939763 -32.48802675 14.68480161 -38.8125 14.625 C-39.62509277 14.61122314 -40.43768555 14.59744629 -41.27490234 14.58325195 C-46.2286085 14.62153013 -49.73334595 15.21565768 -54 18 C-55.3259856 20.37883489 -55.3259856 20.37883489 -55 23 C-51.83151166 27.24359345 -47.99681219 28.1085485 -43.05078125 29.18359375 C-42.27872849 29.36584 -41.50667572 29.54808624 -40.71122742 29.7358551 C-38.24793952 30.31679974 -35.78102682 30.87926618 -33.3125 31.4375 C-13.3010336 35.96858447 -13.3010336 35.96858447 -6 41 C-5.0925 41.556875 -4.185 42.11375 -3.25 42.6875 C1.80664379 47.88460612 4.30115628 53.75704541 4.5625 61 C4.10220754 70.20584917 1.06967363 77.00832603 -5.73828125 83.25 C-16.72768849 91.75303012 -29.60753389 93.54872923 -43.125 93.4375 C-44.40238037 93.43065186 -45.67976074 93.42380371 -46.99584961 93.41674805 C-60.71857143 93.18451336 -74.93047887 91.07753169 -87 84 C-88.2051933 80.38442009 -87.74896968 79.85748606 -86.12890625 76.55078125 C-85.71962891 75.70322266 -85.31035156 74.85566406 -84.88867188 73.98242188 C-84.45103516 73.10134766 -84.01339844 72.22027344 -83.5625 71.3125 C-83.12873047 70.41982422 -82.69496094 69.52714844 -82.24804688 68.60742188 C-81.17408871 66.40049686 -80.091161 64.19845687 -79 62 C-75.00356695 62.74331629 -71.52076842 63.90277904 -67.75 65.4375 C-59.36839488 68.67414662 -52.33342485 70.16970953 -43.375 70.3125 C-42.29943848 70.33920776 -42.29943848 70.33920776 -41.20214844 70.36645508 C-36.10426368 70.35880943 -32.50920838 69.42225425 -28 67 C-26.68098409 64.57589864 -26.68098409 64.57589864 -27 62 C-29.27297301 59.03688337 -31.66745582 58.22783694 -35.1875 57.1875 C-36.90646484 56.67896484 -36.90646484 56.67896484 -38.66015625 56.16015625 C-42.02504645 55.23227459 -45.41054382 54.41841074 -48.80859375 53.62109375 C-74.99202631 47.45475747 -74.99202631 47.45475747 -82.87890625 37.90625 C-86.72657624 31.36387036 -86.70686666 24.36024909 -86 17 C-83.72813985 8.41598296 -78.01864135 1.55834612 -70.40234375 -2.87109375 C-49.43263832 -12.72515045 -19.93281013 -11.95968608 0 0 Z " fill="#FFFF00" transform="translate(358.5,331)"/>
<path d="M0 0 C1.02158203 0.00322266 2.04316406 0.00644531 3.09570312 0.00976562 C4.15080078 0.01814453 5.20589844 0.02652344 6.29296875 0.03515625 C7.36740234 0.03966797 8.44183594 0.04417969 9.54882812 0.04882812 C12.19276558 0.06057896 14.83658827 0.07700838 17.48046875 0.09765625 C17.48046875 0.75765625 17.48046875 1.41765625 17.48046875 2.09765625 C16.8978125 2.23300781 16.31515625 2.36835937 15.71484375 2.5078125 C1.18287513 6.32359671 -10.80249333 15.27723961 -18.89453125 27.97265625 C-27.19439726 43.03270298 -30.03071176 59.00298524 -25.95703125 75.78515625 C-21.08601843 92.08497655 -12.57538303 102.87133975 1.48046875 112.09765625 C5.06854557 113.99749693 8.70436347 115.61226887 12.48046875 117.09765625 C13.40988281 117.47019531 14.33929688 117.84273438 15.296875 118.2265625 C16.01746094 118.51402344 16.73804688 118.80148438 17.48046875 119.09765625 C9.49981592 123.87842919 -2.18333199 121.08832289 -10.74609375 119.19921875 C-27.46090333 114.31974018 -39.1388114 104.35949216 -47.984375 89.6640625 C-55.76527072 75.26112788 -58.2592666 58.90376081 -53.609375 43.08984375 C-47.8344806 27.23475733 -38.29308748 14.67585019 -23.51953125 6.09765625 C-15.81309273 2.56259271 -8.52657984 -0.04763452 0 0 Z " fill="#FFFF00" transform="translate(296.01953125,88.90234375)"/>
<path d="M0 0 C20.45003533 -0.68712964 36.92090035 0.37006108 53.046875 14.61328125 C58.86463402 20.17159966 63.3757492 25.8218722 67 33 C67.38800781 33.72703125 67.77601562 34.4540625 68.17578125 35.203125 C75.04369774 49.08880343 74.66223674 66.5126469 70 81 C63.19253133 97.68297254 51.49925633 109.87042005 34.83203125 116.93359375 C27.05749368 119.86110928 19.78205447 121.25521399 11.5 121.3125 C10.81719971 121.31805908 10.13439941 121.32361816 9.4309082 121.3293457 C5.80009775 121.27648956 3.08777703 120.97712254 0 119 C0.75023437 118.70867187 1.50046875 118.41734375 2.2734375 118.1171875 C19.66893469 111.15022515 33.1454392 101.52926924 40.8125 83.9375 C46.49944959 70.09860903 47.47944962 53.08689702 42.328125 38.95703125 C35.23444629 23.16316424 24.67312977 11.12874825 8.4375 4.5 C5.65619278 3.48691002 2.88045362 2.67929065 0 2 C0 1.34 0 0.68 0 0 Z " fill="#FFFF00" transform="translate(110.5,89)"/>
<path d="M0 0 C0.66625378 6.39603629 -1.05773006 9.98812194 -5 15 C-6.08240962 16.12550321 -7.18581998 17.23131537 -8.3125 18.3125 C-9.199375 19.199375 -10.08625 20.08625 -11 21 C-11 21.99 -11 22.98 -11 24 C-10.28972656 23.3503125 -9.57945312 22.700625 -8.84765625 22.03125 C-7.92855469 21.1959375 -7.00945312 20.360625 -6.0625 19.5 C-5.14597656 18.6646875 -4.22945312 17.829375 -3.28515625 16.96875 C-1 15 -1 15 0 15 C0.66625378 21.39603629 -1.05773006 24.98812194 -5 30 C-6.08240962 31.12550321 -7.18581998 32.23131537 -8.3125 33.3125 C-9.199375 34.199375 -10.08625 35.08625 -11 36 C-11 36.99 -11 37.98 -11 39 C-9.93458984 38.02546875 -9.93458984 38.02546875 -8.84765625 37.03125 C-7.92855469 36.1959375 -7.00945312 35.360625 -6.0625 34.5 C-5.14597656 33.6646875 -4.22945312 32.829375 -3.28515625 31.96875 C-1 30 -1 30 0 30 C0.66625378 36.39603629 -1.05773006 39.98812194 -5 45 C-6.08240962 46.12550321 -7.18581998 47.23131537 -8.3125 48.3125 C-9.199375 49.199375 -10.08625 50.08625 -11 51 C-11 51.99 -11 52.98 -11 54 C-9.93458984 53.02546875 -9.93458984 53.02546875 -8.84765625 52.03125 C-7.92855469 51.1959375 -7.00945312 50.360625 -6.0625 49.5 C-5.14597656 48.6646875 -4.22945312 47.829375 -3.28515625 46.96875 C-1 45 -1 45 0 45 C0.46536858 50.70076505 -0.54411348 54.49838413 -4 59 C-5.81448418 60.88053607 -7.66625183 62.67469702 -9.609375 64.421875 C-11.33056506 66.02456798 -11.33056506 66.02456798 -11 69 C-9.93458984 68.02546875 -9.93458984 68.02546875 -8.84765625 67.03125 C-7.92855469 66.1959375 -7.00945312 65.360625 -6.0625 64.5 C-5.14597656 63.6646875 -4.22945312 62.829375 -3.28515625 61.96875 C-1 60 -1 60 0 60 C0.46536858 65.70076505 -0.54411348 69.49838413 -4 74 C-5.81448418 75.88053607 -7.66625183 77.67469702 -9.609375 79.421875 C-11.33056506 81.02456798 -11.33056506 81.02456798 -11 84 C-9.93458984 83.02546875 -9.93458984 83.02546875 -8.84765625 82.03125 C-7.92855469 81.1959375 -7.00945312 80.360625 -6.0625 79.5 C-5.14597656 78.6646875 -4.22945312 77.829375 -3.28515625 76.96875 C-1 75 -1 75 0 75 C0.31859107 80.30985109 -0.07720228 83.52446599 -3 88 C-5.06009532 90.12917149 -7.16808876 92.16976757 -9.35546875 94.16796875 C-11.33399994 95.96176843 -11.33399994 95.96176843 -11 99 C-9.93458984 98.02546875 -9.93458984 98.02546875 -8.84765625 97.03125 C-7.92855469 96.1959375 -7.00945312 95.360625 -6.0625 94.5 C-5.14597656 93.6646875 -4.22945312 92.829375 -3.28515625 91.96875 C-1 90 -1 90 0 90 C0.31859107 95.30985109 -0.07720228 98.52446599 -3 103 C-5.06009532 105.12917149 -7.16808876 107.16976757 -9.35546875 109.16796875 C-11.33399994 110.96176843 -11.33399994 110.96176843 -11 114 C-9.93458984 113.02546875 -9.93458984 113.02546875 -8.84765625 112.03125 C-7.92855469 111.1959375 -7.00945312 110.360625 -6.0625 109.5 C-5.14597656 108.6646875 -4.22945312 107.829375 -3.28515625 106.96875 C-1 105 -1 105 0 105 C0.31859107 110.30985109 -0.07720228 113.52446599 -3 118 C-4.36166783 119.2851082 -5.73800998 120.55476353 -7.125 121.8125 C-10.26770604 124.78828575 -11.55106696 126.66711599 -12 131 C-12 132.32 -12 133.64 -12 135 C-12.99 135 -13.98 135 -15 135 C-15.1169691 119.62260074 -15.2050545 104.24522204 -15.25906086 88.86747742 C-15.2848072 81.72676696 -15.31988863 74.58633344 -15.37719727 67.44580078 C-15.42714254 61.21974178 -15.45931697 54.99388341 -15.47044247 48.76762962 C-15.47694275 45.47285264 -15.49479357 42.178781 -15.52865028 38.88415527 C-15.56500289 35.19976935 -15.56994241 31.51656797 -15.56762695 27.83203125 C-15.58560333 26.74805557 -15.60357971 25.6640799 -15.62210083 24.54725647 C-15.56549019 16.20981512 -13.28977442 11.43834488 -7.578125 5.46875 C-6.80984375 4.8190625 -6.0415625 4.169375 -5.25 3.5 C-4.47140625 2.8296875 -3.6928125 2.159375 -2.890625 1.46875 C-1 0 -1 0 0 0 Z " fill="#FFFF00" transform="translate(228.5,90)"/>
<path d="M0 0 C3.5750353 1.51816567 5.8997513 3.63152221 8.625 6.375 C9.40101563 7.14585937 10.17703125 7.91671875 10.9765625 8.7109375 C15.21875611 13.51002139 15.20657299 16.8028102 15 23 C8.56636196 18.49804981 2.18517089 13.94607597 0 6 C-0.125 2.6875 -0.125 2.6875 0 0 Z " fill="#FFFF00" transform="translate(195.5,195)"/>
<path d="M0 0 C3.5750353 1.51816567 5.8997513 3.63152221 8.625 6.375 C9.40101563 7.14585937 10.17703125 7.91671875 10.9765625 8.7109375 C15.21875611 13.51002139 15.20657299 16.8028102 15 23 C8.56636196 18.49804981 2.18517089 13.94607597 0 6 C-0.125 2.6875 -0.125 2.6875 0 0 Z " fill="#FFFF00" transform="translate(195.5,180)"/>
<path d="M0 0 C3.5750353 1.51816567 5.8997513 3.63152221 8.625 6.375 C9.40101563 7.14585937 10.17703125 7.91671875 10.9765625 8.7109375 C15.21875611 13.51002139 15.20657299 16.8028102 15 23 C8.56636196 18.49804981 2.18517089 13.94607597 0 6 C-0.125 2.6875 -0.125 2.6875 0 0 Z " fill="#FFFF00" transform="translate(195.5,165)"/>
<path d="M0 0 C3.5750353 1.51816567 5.8997513 3.63152221 8.625 6.375 C9.40101563 7.14585937 10.17703125 7.91671875 10.9765625 8.7109375 C15.21875611 13.51002139 15.20657299 16.8028102 15 23 C8.56636196 18.49804981 2.18517089 13.94607597 0 6 C-0.125 2.6875 -0.125 2.6875 0 0 Z " fill="#FFFF00" transform="translate(195.5,150)"/>
<path d="M0 0 C3.5750353 1.51816567 5.8997513 3.63152221 8.625 6.375 C9.40101563 7.14585937 10.17703125 7.91671875 10.9765625 8.7109375 C15.21875611 13.51002139 15.20657299 16.8028102 15 23 C8.56636196 18.49804981 2.18517089 13.94607597 0 6 C-0.125 2.6875 -0.125 2.6875 0 0 Z " fill="#FFFF00" transform="translate(195.5,135)"/>
<path d="M0 0 C3.5750353 1.51816567 5.8997513 3.63152221 8.625 6.375 C9.40101563 7.14585938 10.17703125 7.91671875 10.9765625 8.7109375 C15.21875611 13.51002139 15.20657299 16.8028102 15 23 C8.56636196 18.49804981 2.18517089 13.94607597 0 6 C-0.125 2.6875 -0.125 2.6875 0 0 Z " fill="#FFFF00" transform="translate(195.5,120)"/>
<path d="M0 0 C3.5750353 1.51816567 5.8997513 3.63152221 8.625 6.375 C9.40101563 7.14585938 10.17703125 7.91671875 10.9765625 8.7109375 C15.21875611 13.51002139 15.20657299 16.8028102 15 23 C8.56636196 18.49804981 2.18517089 13.94607597 0 6 C-0.125 2.6875 -0.125 2.6875 0 0 Z " fill="#FFFF00" transform="translate(195.5,105)"/>
<path d="M0 0 C3.5750353 1.51816567 5.8997513 3.63152221 8.625 6.375 C9.40101563 7.14585938 10.17703125 7.91671875 10.9765625 8.7109375 C15.21875611 13.51002139 15.20657299 16.8028102 15 23 C8.56636196 18.49804981 2.18517089 13.94607597 0 6 C-0.125 2.6875 -0.125 2.6875 0 0 Z " fill="#FFFF00" transform="translate(195.5,90)"/>
<path d="M0 0 C0.66849478 6.41754986 -1.07909265 9.95883341 -5 15 C-6.90768395 17.19686832 -8.81404594 19.05692973 -11 21 C-11.66 21 -12.32 21 -13 21 C-13 22.98 -13 24.96 -13 27 C-13.33 27 -13.66 27 -14 27 C-14.61826536 15.42469845 -14.61826536 15.42469845 -12.5625 10.6875 C-2.37209302 0 -2.37209302 0 0 0 Z " fill="#FFFF00" transform="translate(228.5,90)"/>
<path d="M0 0 C3.09681244 2.8275244 3.9250134 4.85212826 4.203125 9.109375 C4.35781742 21.12381952 4.35781742 21.12381952 1 27 C-3.16091722 20.75862417 -3.70802656 15.36758068 -3 8 C-2.22598628 5.14554476 -1.22565172 2.70664755 0 0 Z " fill="#FFFF00" transform="translate(211.5,76)"/>
</svg>