<?xml version="1.0" encoding="UTF-8"?>
<svg xmlns="http://www.w3.org/2000/svg" viewBox="0 0 500 200" width="500" height="200">
<g transform="translate(50, 100) scale(0.3)">
  <path d="M0 0 C0.74372864 0.00087616 1.48745728 0.00175232 2.25372314 0.00265503 C32.73341268 0.12055933 61.46844059 8.84203273 86.5625 26.375 C87.54089844 27.055625 88.51929688 27.73625 89.52734375 28.4375 C122.0492225 52.23595762 142.79864745 86.79008983 149.64453125 126.328125 C150.80864998 134.15543224 150.96033719 141.91921777 150.9375 149.8125 C150.93662384 150.55622864 150.93574768 151.29995728 150.93484497 152.06622314 C150.81694067 182.54591268 142.09546727 211.28094059 124.5625 236.375 C123.881875 237.35339844 123.20125 238.33179688 122.5 239.33984375 C98.70154238 271.8617225 64.14741017 292.61114745 24.609375 299.45703125 C16.78206776 300.62114998 9.01828223 300.77283719 1.125 300.75 C0.00940704 300.74868576 0.00940704 300.74868576 -1.12872314 300.74734497 C-31.60841268 300.62944067 -60.34344059 291.90796727 -85.4375 274.375 C-86.41589844 273.694375 -87.39429688 273.01375 -88.40234375 272.3125 C-120.9242225 248.51404238 -141.67364745 213.95991017 -148.51953125 174.421875 C-149.68364998 166.59456776 -149.83533719 158.83078223 -149.8125 150.9375 C-149.81162384 150.19377136 -149.81074768 149.45004272 -149.80984497 148.68377686 C-149.69194067 118.20408732 -140.97046727 89.46905941 -123.4375 64.375 C-122.756875 63.39660156 -122.07625 62.41820312 -121.375 61.41015625 C-97.57654238 28.8882775 -63.02241017 8.13885255 -23.484375 1.29296875 C-15.65706776 0.12885002 -7.89328223 -0.02283719 0 0 Z " fill="#FC5000" />
</g>
  <text x="155" y="100" font-family="Arial, Helvetica, sans-serif" font-weight="900" font-size="72" fill="#10161E" letter-spacing="4">PKS</text>
  <text x="155" y="130" font-family="Arial, Helvetica, sans-serif" font-weight="500" font-size="14" fill="#FC5000" letter-spacing="2">Partai Keadilan Sejahtera</text>
  <line x1="150" y1="20" x2="150" y2="180" stroke="#FC5000" stroke-width="2" opacity="0.3" />

</svg>